<svg width="182" height="52" viewBox="0 0 182 52" fill="none" xmlns="http://www.w3.org/2000/svg">
<path d="M16.5455 32.4918C15.4392 32.2722 14.2288 31.9055 12.9092 31.3723C-4.18174 24.4676 5.78795 13.0505 12.9092 8.20509C26.1297 5.22169 33.3483 35.8276 16.5455 32.4918ZM16.5455 32.4918V45M2 45C11.2424 43.9401 30.1818 42.4561 32 45" stroke="#F25C54" stroke-width="4" stroke-linecap="round"/>
<path d="M54.6819 10.9454C53.3049 8.58906 43.4938 9.9636 38.7603 10.9454C38.1866 13.8909 37.3833 20.3709 38.7603 22.7272C42.92 23.2181 51.9278 23.9054 54.6819 22.7272M74.046 10.9454C72.669 8.58906 62.8579 9.9636 58.1245 10.9454C57.5507 13.8909 56.7475 20.3709 58.1245 22.7272C62.2841 23.2181 71.292 23.9054 74.046 22.7272M78.7795 8C78.9979 10.0765 79.2607 13.7131 79.3314 17.8181M78.7795 30.0908C79.288 26.2233 79.4001 21.8003 79.3314 17.8181M79.3314 17.8181C80.5818 18.3091 83.5129 18.9963 85.2342 17.8181M84.3735 8C85.3776 13.0727 86.9554 24.2981 85.2342 28.6181M62.4276 33.0363C58.2679 34.9999 52.7025 40.7926 63.7185 48.2544C77.4885 57.5816 76.6279 26.1636 62.4276 33.0363Z" stroke="#F25C54" stroke-width="4" stroke-linecap="round"/>
<path d="M108.115 24.5549C107.08 24.3059 105.952 23.8601 104.731 23.1847C91.8692 16.0712 98.5256 8.3648 103.461 5.40082C119.49 1.48817 120.708 27.5838 108.115 24.5549ZM108.115 24.5549C107.692 25.9331 107.1 29.0283 108.115 30.3833M95 29.113C100.782 29.9598 114.123 31.1454 121.231 29.113M121.231 5.40082C121.876 9.06247 122.653 15.0688 122.86 21.0679M121.231 36.3112C122.727 32.6498 123.06 26.8622 122.86 21.0679M122.86 21.0679C124.15 20.3623 126.985 19.3744 128 21.0679M106.846 37.5815C101.205 43.9329 97.1154 54.4339 125.885 45.6266" stroke="#F25C54" stroke-width="4" stroke-linecap="round"/>
<path d="M146.557 2.53906C148.998 9.08203 149.076 11.4648 147.465 14.8203C144.486 17.9453 141.02 20.6445 137.748 25.2344C133.402 31.3379 132.248 49.8203 156.693 47.5C139 46.5 138 33 148 26.2109C146.145 32.3145 150.252 35.416 154.5 34C161.576 32.5 164.098 36.582 164 40C163.864 44.7614 159.086 46.377 156.693 47.5C166.898 45.6934 171 37.2461 171 30.8008C171 22.3047 163.432 21.1328 167.24 14.0039C162.699 14.3945 161.137 17.373 161.576 22.2559C161.869 25.4785 158.5 27.6758 156.01 26.2109C154.008 24.9902 154.057 22.6465 155.814 20.8887C159.574 17.1777 157.397 8.93555 146.557 2.53906Z" fill="#F25C54"/>
<path d="M147.794 37.7925C147.584 38.268 147.536 38.7927 147.663 39.251C147.79 39.7094 148.08 40.0639 148.47 40.2366C148.859 40.4093 149.317 40.386 149.742 40.1718C150.166 39.9577 150.523 39.5703 150.734 39.0947L149.264 38.4436L147.794 37.7925Z" fill="#F25C54"/>
<path d="M159.734 37.7925C159.945 38.268 159.992 38.7927 159.865 39.251C159.738 39.7094 159.448 40.0639 159.058 40.2366C158.669 40.4093 158.211 40.386 157.786 40.1718C157.362 39.9577 157.005 39.5703 156.794 39.0947L158.264 38.4436L159.734 37.7925Z" fill="#F25C54"/>
<path fill-rule="evenodd" clip-rule="evenodd" d="M152.049 42.0537L152.048 42.0537C152.061 42.5737 152.275 43.0674 152.642 43.4262C153.01 43.7851 153.501 43.9797 154.009 43.9673C154.516 43.9548 154.997 43.7364 155.347 43.3599C155.697 42.9835 155.886 42.4799 155.873 41.96L155.873 41.96C155.864 42.0501 155.666 42.1407 155.319 42.2129C154.962 42.2873 154.476 42.336 153.969 42.3484C153.462 42.3609 152.975 42.336 152.614 42.2792C152.264 42.2241 152.062 42.1433 152.049 42.0537Z" fill="#F25C54"/>
</svg>
